<svg xmlns="http://www.w3.org/2000/svg" x="0px" y="0px"
width="1000" height="1000"
viewBox="0 0 24 24"
style=" fill:#000000;"><path d="M20,6.667L24,5L12,0L0,5l4,1.667v5.1C3.372,12.329,3,13.14,3,14c0,1.276,0.823,2.397,1.992,2.816C6.396,20.028,9.043,22,12,22s5.604-1.972,7.008-5.184C20.177,16.397,21,15.276,21,14c0-0.86-0.372-1.671-1-2.233V6.667z M12,2.167L18.8,5L18,5.333v1.333v1.505C17.687,8.06,17.35,8,17,8H7C6.65,8,6.313,8.06,6,8.171V6.667V5.333L5.2,5L12,2.167z M18.137,14.981l-0.585,0.081l-0.211,0.551C16.302,18.319,14.256,20,12,20s-4.302-1.681-5.34-4.386l-0.211-0.551l-0.585-0.081C5.371,14.914,5,14.492,5,14c0-0.36,0.186-0.682,0.498-0.861L6,12.851V11c0-0.552,0.448-1,1-1h10c0.552,0,1,0.448,1,1v1.851l0.502,0.288C18.814,13.318,19,13.64,19,14C19,14.492,18.629,14.914,18.137,14.981z"></path><path d="M22 5H24V11H22z"></path><path d="M12 1L5 4 5 9 12 9 19 9 19 4z" opacity=".3"></path></svg>