<svg xmlns="http://www.w3.org/2000/svg" x="0px" y="0px"
width="1000" height="1000"
viewBox="0 0 172 172"
style=" fill:#000000;"><g fill="none" fill-rule="nonzero" stroke="none" stroke-width="1" stroke-linecap="butt" stroke-linejoin="miter" stroke-miterlimit="10" stroke-dasharray="" stroke-dashoffset="0" font-family="none" font-weight="none" font-size="none" text-anchor="none" style="mix-blend-mode: normal"><path d="M0,172v-172h172v172z" fill="none"></path><g fill="#000000"><path d="M136.16667,91.73333c0,-11.46667 -7.16667,-21.5 -16.48333,-25.8c1.43333,-3.58333 2.15,-6.45 2.15,-8.6c0,-12.18333 -9.31667,-21.5 -21.5,-21.5c-5.73333,0 -10.75,2.15 -14.33333,5.73333c-8.6,-7.88333 -21.5,-7.16667 -29.38333,0.71667c-6.45,6.45 -7.88333,15.76667 -4.3,23.65c-10.03333,5.01667 -16.48333,14.33333 -16.48333,25.8c0,9.31667 4.3,17.2 11.46667,22.21667c1.43333,12.18333 12.18333,22.21667 25.08333,22.21667c5.01667,0 10.03333,-1.43333 13.61667,-4.3c4.3,2.86667 8.6,4.3 13.61667,4.3c12.9,0 23.65,-10.03333 25.08333,-22.21667c7.16667,-5.01667 11.46667,-12.9 11.46667,-22.21667z" opacity="0.3"></path><path d="M99.61667,143.33333c-5.01667,0 -9.31667,-1.43333 -13.61667,-2.86667c-4.3,2.15 -9.31667,2.86667 -13.61667,2.86667c-15.05,0 -27.95,-10.75 -31.53333,-25.8c-7.88333,-6.45 -12.18333,-15.76667 -12.18333,-25.8c0,-11.46667 5.73333,-22.21667 15.05,-28.66667c-2.15,-9.31667 0.71667,-19.35 7.88333,-25.8c9.31667,-9.31667 23.65,-10.75 34.4,-4.3c4.3,-2.86667 9.31667,-4.3 14.33333,-4.3c15.76667,0 28.66667,12.9 28.66667,28.66667c0,1.43333 0,3.58333 -0.71667,5.73333c9.31667,6.45 15.05,17.2 15.05,28.66667c0,10.03333 -4.3,19.35 -12.18333,26.51667c-2.86667,14.33333 -15.76667,25.08333 -31.53333,25.08333zM86,123.26667l4.3,2.86667c2.86667,2.15 6.45,2.86667 10.03333,2.86667c9.31667,0 16.48333,-7.16667 17.91667,-15.76667l0.71667,-2.86667l2.86667,-2.15c5.73333,-4.3 8.6,-10.03333 8.6,-16.48333c0,-7.88333 -5.01667,-15.76667 -12.18333,-18.63333l-6.45,-2.86667l2.86667,-6.45c0,-4.3 0,-6.45 0,-6.45c0,-7.88333 -6.45,-14.33333 -14.33333,-14.33333c-4.3,0 -7.88333,2.15 -9.31667,3.58333l-5.01667,4.3l-5.01667,-4.3c-5.73333,-5.01667 -14.33333,-5.01667 -19.35,0.71667c-4.3,4.3 -5.73333,10.75 -2.86667,15.76667l2.86667,6.45l-6.45,2.86667c-7.16667,3.58333 -12.18333,10.75 -12.18333,18.63333c0,6.45 2.86667,12.9 8.6,16.48333l2.86667,2.15l0.71667,2.86667c0,9.31667 7.88333,16.48333 17.2,16.48333c3.58333,0 7.16667,-0.71667 10.03333,-2.86667z"></path><path d="M78.83333,35.83333h14.33333v100.33333h-14.33333zM111.8,83.85l-7.16667,-12.18333c7.16667,-4.3 12.9,-12.18333 8.6,-19.35l12.18333,-7.16667c9.31667,14.33333 0,30.81667 -13.61667,38.7zM60.2,83.85c-13.61667,-7.88333 -22.93333,-23.65 -14.33333,-38.7l12.18333,7.16667c-4.3,7.16667 1.43333,15.05 8.6,19.35z"></path><path d="M64.5,107.5v-14.33333c4.3,0 7.16667,-1.43333 10.03333,-3.58333c2.86667,-2.86667 4.3,-6.45 4.3,-10.75h14.33333c0,7.16667 -2.86667,15.05 -8.6,20.78333c-5.01667,5.01667 -12.18333,7.88333 -20.06667,7.88333z"></path><path d="M107.5,114.66667c-17.91667,0 -28.66667,-10.75 -28.66667,-28.66667h14.33333c0,10.03333 4.3,14.33333 14.33333,14.33333zM143.33333,35.83333c-3.95804,0 -7.16667,3.20863 -7.16667,7.16667c0,3.95804 3.20863,7.16667 7.16667,7.16667c3.95804,0 7.16667,-3.20863 7.16667,-7.16667c0,-3.95804 -3.20863,-7.16667 -7.16667,-7.16667zM28.66667,35.83333c-3.95804,0 -7.16667,3.20863 -7.16667,7.16667c0,3.95804 3.20863,7.16667 7.16667,7.16667c3.95804,0 7.16667,-3.20863 7.16667,-7.16667c0,-3.95804 -3.20863,-7.16667 -7.16667,-7.16667zM150.5,121.83333c-3.95804,0 -7.16667,3.20863 -7.16667,7.16667c0,3.95804 3.20863,7.16667 7.16667,7.16667c3.95804,0 7.16667,-3.20863 7.16667,-7.16667c0,-3.95804 -3.20863,-7.16667 -7.16667,-7.16667zM157.66667,93.16667c-3.95804,0 -7.16667,3.20863 -7.16667,7.16667c0,3.95804 3.20863,7.16667 7.16667,7.16667c3.95804,0 7.16667,-3.20863 7.16667,-7.16667c0,-3.95804 -3.20863,-7.16667 -7.16667,-7.16667zM21.5,121.83333c-3.95804,0 -7.16667,3.20863 -7.16667,7.16667c0,3.95804 3.20863,7.16667 7.16667,7.16667c3.95804,0 7.16667,-3.20863 7.16667,-7.16667c0,-3.95804 -3.20863,-7.16667 -7.16667,-7.16667zM14.33333,93.16667c-3.95804,0 -7.16667,3.20863 -7.16667,7.16667c0,3.95804 3.20863,7.16667 7.16667,7.16667c3.95804,0 7.16667,-3.20863 7.16667,-7.16667c0,-3.95804 -3.20863,-7.16667 -7.16667,-7.16667zM157.66667,64.5c-3.95804,0 -7.16667,3.20863 -7.16667,7.16667c0,3.95804 3.20863,7.16667 7.16667,7.16667c3.95804,0 7.16667,-3.20863 7.16667,-7.16667c0,-3.95804 -3.20863,-7.16667 -7.16667,-7.16667zM14.33333,64.5c-3.95804,0 -7.16667,3.20863 -7.16667,7.16667c0,3.95804 3.20863,7.16667 7.16667,7.16667c3.95804,0 7.16667,-3.20863 7.16667,-7.16667c0,-3.95804 -3.20863,-7.16667 -7.16667,-7.16667z"></path></g></g></svg>